<svg height="68.064" width="68.064" xmlns="http://www.w3.org/2000/svg"><path d="m410.93432 324.42596c-18.79523 0-34.03178 15.2366-34.03178 34.0318 0 18.7953 15.23655 34.0318 34.03178 34.0318s34.03178-15.2365 34.03178-34.0318c0-18.7952-15.23655-34.0318-34.03178-34.0318zm0 4.0038c8.22836 0 15.65838 3.335 21.08218 8.6956-2.2925-.4445-4.64842-.6881-7.0691-.6881-.65645 0-1.29102-.034-1.93931 0-5.07362.2639-9.90353 1.5774-14.26332 3.6909-3.0054-3.0263-5.95314-6.2441-8.88329-9.5714 3.42421-1.3581 7.16515-2.127 11.07284-2.127zm-15.51449 4.3165c2.88754 3.5092 5.88948 6.7767 8.94585 9.9468-3.22457 2.1437-6.11513 4.7411-8.5705 7.7572-.2955-.026-.5735 0-.87582 0-.83047 0-1.60564.1222-2.37722.3128-1.48094-2.9777-2.64006-6.1541-3.44071-9.4463-.24263-.9976-.34725-1.9902-.37535-3.0028 1.95534-2.1544 4.19085-4.0537 6.69375-5.5677zm36.59667 7.2568c.9368.016 1.82847.1593 2.75257.3128 3.85106 5.0488 6.19329 11.3019 6.19329 18.1419 0 3.0884-.51034 6.0793-1.37628 8.8833-1.84351-1.5051-3.66531-3.0469-5.50515-4.5667.54763-.9986.87582-2.0964.87582-3.3156 0-3.8697-3.13693-7.0066-7.00654-7.0066-1.63435 0-3.12472.5634-4.31653 1.5014-3.08817-2.6927-6.15347-5.4453-9.19609-8.3202 4.90568-2.7341 10.2584-4.6708 15.82728-5.5052.58008-.087 1.17251-.1345 1.75163-.1251zm-46.73113 2.8777c.37234 2.4024.92538 5.6885 1.06349 6.1307.45076 1.4432.95153 2.8561 1.56396 4.254-1.84811 1.816-3.0028 4.3985-3.0028 7.1942 0 2.7159 1.12168 5.1407 2.87768 6.944-.53504 2.6082-.87582 5.3002-.87582 8.07 0 .3118-.008.6284 0 .9384-3.75572-5.0134-6.0056-11.2081-6.0056-17.9543 0-5.7104 1.6118-11.0319 4.37909-15.577zm24.77313 5.5051c3.59512 3.4403 7.28686 6.7005 11.01028 9.8843-.0645.3818-.12512.7883-.12512 1.1886 0 3.8696 3.13693 7.0065 7.00655 7.0065.82747 0 1.64027-.1746 2.37722-.4379 2.44526 1.9839 4.9266 3.9783 7.38189 5.943-.53766 1.0644-1.09564 2.0784-1.75164 3.0654-1.63769.2812-3.3281.5226-3.94118.563-3.44457.2269-6.90336-.1541-10.25958-.9383-.40047-3.4892-3.34754-6.1933-6.94398-6.1933-1.68555 0-3.23282.5722-4.44165 1.5639-2.35057-1.3976-4.60041-3.0449-6.69375-4.8795.76207-1.4124 1.25117-2.9745 1.25117-4.6919 0-2.2769-.78391-4.3864-2.06443-6.0682 2.17053-2.2216 4.61481-4.2004 7.19422-6.0056zm-10.44726 20.832c2.51886 2.2283 5.31248 4.1369 8.25771 5.7553-.012.1658-.0625.3317-.0625.5005 0 3.8696 3.13693 7.0066 7.00655 7.0066 2.37063 0 4.48751-1.201 5.75537-3.0029 2.92623.4984 5.96079.6684 9.00841.438.91708-.069 1.80277-.1886 2.69002-.3754-5.44357 5.5077-12.97676 8.9459-21.33242 8.9459-7.22423 0-13.83699-2.5684-19.01776-6.8189-.53088-1.2947-1.05915-2.6194-1.00094-3.1905.28501-2.7964.98246-5.5772 1.93931-8.2577.67005.1413 1.35231.2502 2.06443.2502 1.7123 0 3.28251-.4933 4.69188-1.2511z" fill="#00bcf2" transform="translate(-376.903 -324.426)"/></svg>